<svg width="174" height="179" viewBox="0 0 174 179" fill="none" xmlns="http://www.w3.org/2000/svg">
<rect width="174" height="179" rx="10" fill="#EBB757"/>
<path d="M62.177 138.033C54.154 136.725 46.974 134.799 41.039 132.408V174.9H20V98.722C20 92.774 22.066 87.666 26.198 83.4C30.33 79.133 35.277 77 41.039 77H83.216V174.9H62.177V138.033ZM50.375 88.255L44 117.201L51.753 125.805L59.506 117.201L53.14 88.299C54.725 87.189 56.577 84.783 56.577 84.061C56.577 82.923 55.29 82 53.703 82H49.872C48.287 82 47 82.923 47 84.061C47 84.774 48.805 87.127 50.375 88.255Z" fill="#222222"/>
<path d="M142.363 74.109C160.789 61.353 162.289 33.291 150.484 8.191C152.427 3.937 155.048 3.937 158.349 8.191C171.587 26.734 173.406 58.528 160.741 85.486C160.678 85.62 160.615 85.754 160.553 85.886C159.573 84.273 158.386 82.747 156.996 81.312C152.875 77.057 147.959 74.636 142.363 74.109Z" fill="#222222"/>
<path d="M140.699 77.011C146.162 77.177 150.877 79.307 154.841 83.4C158.973 87.666 161.039 92.774 161.039 98.722V174.9H140V131.741C141.293 131.056 142.53 130.239 143.711 129.292C150.107 124.608 153.217 119.213 153.217 109.633V98.722C153.217 92.029 150.848 86.183 146.178 81.342C144.482 79.585 142.654 78.14 140.699 77.011Z" fill="#222222"/>
<path d="M150.217 109.633V98.722C150.217 92.807 148.151 87.708 144.018 83.425C139.886 79.142 134.94 77 129.178 77H87V174.9H108.039V138.404C120.16 136.653 130.521 133.509 137.818 129.479C139.243 128.804 140.598 127.949 141.884 126.91C146.139 123.809 150.217 119.665 150.217 109.633Z" fill="#222222"/>
<path d="M32.045 67.917C31.429 68.81 30.782 69.694 30.105 70.571H19.848C8.194 60.594 3.4 51.677 5.467 43.82C8.521 32.207 25.912 6.44501 33.878 7.00901C27.258 11.263 23 17.832 23 25.277C23 30.923 26.73 38.367 31.143 44.493C31.722 45.297 31.708 45.994 30.589 58.453C30.258 62.138 30.781 65.308 32.045 67.917Z" fill="#222222"/>
<path d="M70.837 66.988C71.637 68.196 72.493 69.391 73.404 70.57H83.661C95.316 60.594 100.109 51.677 98.042 43.82C94.942 32.034 77.074 5.671 69.28 7.052C69.186 7.133 69.092 7.213 69 7.292C75.4 11.552 79.473 17.996 79.473 25.277C79.473 30.923 75.743 38.367 71.33 44.493C70.751 45.297 70.765 45.994 71.884 58.453C72.177 61.711 71.802 64.567 70.837 66.988Z" fill="#222222"/>
<path d="M50 5C50.089 5 52.091 5 52.179 5C65.583 5.747 76.179 14.537 76.179 25.276C76.179 31.25 70.73 39.785 68.602 42.739C67.184 44.708 67.55 47.001 68.602 58.72C69.654 70.44 60.719 72.992 56.3 72.992C54.909 72.992 52.854 70.228 51.09 70.228C49.119 70.228 47.433 72.992 45.879 72.992C41.461 72.992 32.525 70.439 33.577 58.72C34.629 47 34.995 44.708 33.577 42.739C31.449 39.786 26 31.251 26 25.277C26 14.537 36.596 5.748 50 5ZM50.989 66.87C52.576 66.87 55.778 63.011 55.778 62.061C55.778 60.923 54.491 60 52.904 60C52.168 60 49.809 60 49.072 60C47.485 60 46.199 60.923 46.199 62.061C46.2 63.011 49.402 66.87 50.989 66.87Z" fill="#222222"/>
</svg>
